<svg xmlns="http://www.w3.org/2000/svg" width="1914" height="1229" viewBox="0 0 1914 1229">
  <path d="M475,1361H2394V2436c-3.37,1.16-9.15,1.07-14,1-7.02-4.49-23.24.92-30-1-3.49-.99-8.36-1.81-10-1-8.9,6.67-7.11,21.06-23,21-3.53,2.39-7.16,1.45-12,3-4.25,1.36-7.32,5.53-11,7-9.98,4-21.86,3.25-30,8,1,1.33,2,2.67,3,4-10.78,1.72-10.72,3.38-21-1v3q-16.005-1.995-32-4c-2.76,4.28-6.66,4.29-14,4-1.46-1.07-4.4-.85-6-2-1-1.67-2-3.33-3-5-2.17-1.52-4.54-.61-7-2-1-1.33-2-2.67-3-4q-8.505-1.005-17-2c-4.83-1.35-10.72-5.46-15-7q-9.495,1.005-19,2c-7.52-1.45-18.99-3.22-29-1-5.79,1.28-13.42.44-20,2-7.42,1.76-17.79,6.48-28,4-1.89-.46-6.11-2.54-8-3-6.83-1.67-11.26,1.9-15,3-11.61,3.42-24.4,3.3-35,6-14.99,3.82-30.53,3.9-45,7q-16.005-1.005-32-2c-4.97,1.32-11.22,3.69-17,5q-10.5.495-21,1c-4.06,1.08-10.29,4.75-17,3-6.15-1.6-17.07-4.18-24-5-6.98-.82-12.81,5.76-20,5-12.9-1.36-21.7-8.56-37-9-3.43,6.03-4.91,13.1-15,13-4.09-2.52-8.26.54-11,2-6.38-.75-14.91-5.24-24-3-3.17.78-7.91,3.23-13,2-9.17-2.21-21.11-4.65-30-7h-11c-1.7-.58-3.93-3.59-6-4-2,.33-4,0.67-6,1-15.33.33-24.27,2.67-35,6q-13.5,1.995-27,4c-8.03,1.13-13.11-4.4-20-3a564.747,564.747,0,0,0-58,15c-7.97,2.56-33.96-2.31-41-4-4.04-.97-10.5.4-13,1h-11a123.631,123.631,0,0,1-33,3c-10.09-.36-23.69-3.61-32-6-7.99-2.3-16,1.33-23,0-7.37-1.4-23.12-3.08-32-1-12.63,2.96-33.88-1.57-47,3-11.09,3.87-14.63,14.73-30,15-7.35-5.17-26.38-10.93-39-11-3.65,6.59-3.8,13.26-15,13-3.29,2.07-8.77.73-13,2-3.37,1.01-7.72,4.09-11,5-10.73,2.97-18.54-1.32-29,1-10.51,2.33-15.31-6.97-23-10-7.78-3.06-19.36-2.01-29-2-12.53.02-27.28,0.41-39,3h-16c-16.32,3.56-35.48,2.55-51,6-5.45,1.21-38.727.69-40,0-14.575-5.33-10.038-19.05-34-19-3.907,2.44-13.775,3.05-18,4-0.961,1.77-1.257,1.68-2,4,2.524,1.75,2.639,1.84,3,6-12.72,5.93-30.38,10.3-46,14H851c-4.222,1-13.679,3.7-19,3-5.642-.75-13.25-2.83-18-4q-11-.495-22-1c-4.022-.87-11.16-3.65-17-2-9.863,2.79-15.266,12.77-25,16-12.275,4.08-27.685-3.68-42,0-7.058,1.82-10.38,7.71-16,10-3.333.33-6.667,0.67-10,1-1.471.93-1.807,4.22-4,5H659q-6,1.995-12,4c-1,1.67-2,3.33-3,5H629c-13.7,3.24-32.187,3.03-47,7-3.1.83-7.86,3.44-11,4q-6-1.005-12-2c-2.652.65-5.8,4.15-9,5H540c-6.362,2.91-4.58,9.45-15,10-13.1-10.44-27.409-16.88-51-17Q474.5,1967.06,475,1361Z" transform="translate(-480 -1361)"/>
</svg>
